<?xml version="1.0" encoding="UTF-8"?>
<svg id="Layer_2" data-name="Layer 2" xmlns="http://www.w3.org/2000/svg" viewBox="0 0 140 37">
  <defs>
    <style>
      .cls-1 {
        fill: #fff;
      }
    </style>
  </defs>
  <g id="Layer_1-2" data-name="Layer 1">
    <g>
      <rect class="cls-1" width="140" height="37" rx="5" ry="5"/>
      <g>
        <path d="M24.29,24.85v-2.32h1.84v-9.36h-1.84v-2.32h5.76c1.88,0,3.31.48,4.29,1.43s1.47,2.37,1.47,4.25v2.64c0,1.88-.49,3.3-1.47,4.25-.98.95-2.41,1.43-4.29,1.43h-5.76ZM28.77,22.46h1.32c1.07,0,1.85-.28,2.34-.84.49-.56.74-1.35.74-2.36v-2.8c0-1.03-.25-1.82-.74-2.37-.49-.55-1.27-.83-2.34-.83h-1.32v9.2Z"/>
        <path d="M42.61,25.13c-.99,0-1.86-.21-2.61-.63-.75-.42-1.34-1.01-1.76-1.78-.42-.77-.63-1.67-.63-2.71v-.24c0-1.04.21-1.94.62-2.71.41-.77.99-1.36,1.74-1.78.75-.42,1.61-.63,2.6-.63s1.82.22,2.54.65c.72.43,1.28,1.03,1.68,1.8.4.77.6,1.66.6,2.67v.86h-7.22c.03.68.28,1.23.76,1.66.48.43,1.07.64,1.76.64s1.23-.15,1.56-.46c.33-.31.59-.65.76-1.02l2.06,1.08c-.19.35-.46.72-.81,1.13-.35.41-.82.75-1.41,1.04-.59.29-1.33.43-2.24.43ZM40.19,18.75h4.64c-.05-.57-.28-1.03-.69-1.38-.41-.35-.94-.52-1.59-.52s-1.22.17-1.62.52c-.4.35-.65.81-.74,1.38ZM41.05,13.81l1.48-2.96h2.84l-2.12,2.96h-2.2Z"/>
        <path d="M54.29,25.13c-.96,0-1.83-.2-2.61-.6-.78-.4-1.4-.98-1.85-1.74-.45-.76-.68-1.68-.68-2.76v-.28c0-1.08.23-2,.68-2.76.45-.76,1.07-1.34,1.85-1.74.78-.4,1.65-.6,2.61-.6s1.76.17,2.44.5c.68.33,1.23.79,1.65,1.37s.7,1.24.83,1.97l-2.44.52c-.05-.4-.17-.76-.36-1.08-.19-.32-.45-.57-.79-.76-.34-.19-.76-.28-1.27-.28s-.96.11-1.37.33c-.41.22-.73.55-.96.98-.23.43-.35.96-.35,1.59v.2c0,.63.12,1.16.35,1.59.23.43.55.76.96.98.41.22.86.33,1.37.33.76,0,1.34-.2,1.73-.59.39-.39.64-.91.75-1.55l2.44.58c-.17.71-.47,1.35-.89,1.93s-.97,1.04-1.65,1.37c-.68.33-1.49.5-2.44.5Z"/>
        <path d="M66.07,25.13c-.99,0-1.87-.2-2.66-.6-.79-.4-1.41-.98-1.86-1.74-.45-.76-.68-1.67-.68-2.74v-.32c0-1.07.23-1.98.68-2.74.45-.76,1.07-1.34,1.86-1.74s1.67-.6,2.66-.6,1.87.2,2.66.6,1.41.98,1.86,1.74c.45.76.68,1.67.68,2.74v.32c0,1.07-.23,1.98-.68,2.74-.45.76-1.07,1.34-1.86,1.74-.79.4-1.67.6-2.66.6ZM66.07,22.9c.77,0,1.41-.25,1.92-.75.51-.5.76-1.22.76-2.15v-.2c0-.93-.25-1.65-.75-2.15s-1.14-.75-1.93-.75-1.41.25-1.92.75c-.51.5-.76,1.22-.76,2.15v.2c0,.93.25,1.65.76,2.15.51.5,1.15.75,1.92.75Z"/>
        <path d="M77.37,25.02c-.77,0-1.45-.18-2.03-.53-.58-.35-1.03-.84-1.35-1.47-.32-.63-.48-1.35-.48-2.16v-5.92h2.52v5.72c0,.75.18,1.31.55,1.68.37.37.89.56,1.57.56.77,0,1.37-.26,1.8-.77s.64-1.23.64-2.15v-5.04h2.52v9.92h-2.48v-1.3h-.36c-.16.33-.46.66-.9.98-.44.32-1.11.48-2,.48Z"/>
        <path d="M87.99,24.85l-3.16-9.92h2.68l2.3,8.08h.36l2.3-8.08h2.68l-3.16,9.92h-4Z"/>
        <path d="M96.87,24.85v-9.92h2.48v1.12h.36c.15-.4.39-.69.73-.88.34-.19.74-.28,1.19-.28h1.2v2.24h-1.24c-.64,0-1.17.17-1.58.51s-.62.86-.62,1.57v5.64h-2.52Z"/>
        <path d="M106.05,13.77c-.45,0-.84-.15-1.15-.44-.31-.29-.47-.68-.47-1.16s.16-.87.47-1.16.7-.44,1.15-.44.85.15,1.16.44c.31.29.46.68.46,1.16s-.15.87-.46,1.16c-.31.29-.69.44-1.16.44ZM104.79,24.85v-9.92h2.52v9.92h-2.52Z"/>
        <path d="M110.11,24.85v-9.92h2.48v1.12h.36c.15-.4.39-.69.73-.88.34-.19.74-.28,1.19-.28h1.2v2.24h-1.24c-.64,0-1.17.17-1.58.51s-.62.86-.62,1.57v5.64h-2.52Z"/>
      </g>
    </g>
  </g>
</svg>